<?xml version="1.0" encoding="utf-8"?>
<!-- Generator: Adobe Illustrator 25.4.1, SVG Export Plug-In . SVG Version: 6.00 Build 0)  -->
<svg version="1.1" id="Слой_1" xmlns:serif="http://www.serif.com/"
	 xmlns="http://www.w3.org/2000/svg" xmlns:xlink="http://www.w3.org/1999/xlink" x="0px" y="0px" viewBox="0 0 24 24"
	 style="enable-background:new 0 0 24 24;" xml:space="preserve">
<style type="text/css">
	.st0{fill-rule:evenodd;clip-rule:evenodd;fill:#FFFFFF;}
</style>
<path id="telegram-3" class="st0" d="M19,24H5c-2.8,0-5-2.2-5-5V5c0-2.8,2.2-5,5-5h14c2.8,0,5,2.2,5,5v14C24,21.8,21.8,24,19,24z
	 M16.3,18.9c0.2,0.2,0.5,0.2,0.7,0.1c0.2-0.1,0.4-0.3,0.5-0.6c0.6-2.7,2-9.6,2.5-12.1c0-0.2,0-0.4-0.2-0.5c-0.1-0.1-0.4-0.2-0.5-0.1
	c-2.8,1-11.4,4.3-14.9,5.6C4.1,11.3,4,11.6,4,11.8c0,0.2,0.2,0.4,0.4,0.5C6,12.8,8,13.4,8,13.4s1,2.9,1.5,4.4
	c0.1,0.2,0.2,0.3,0.4,0.4c0.2,0,0.4,0,0.5-0.1c0.8-0.8,2.1-1.9,2.1-1.9S14.9,17.9,16.3,18.9z M8.9,13.1l1.1,3.7l0.2-2.3
	c0,0,4.3-3.9,6.8-6.1c0.1-0.1,0.1-0.2,0-0.3C17,8,16.9,8,16.8,8C14,9.8,8.9,13.1,8.9,13.1z"/>
</svg>
